<svg width="187" height="187" viewBox="0 0 187 187" xmlns="http://www.w3.org/2000/svg" xmlns:xlink="http://www.w3.org/1999/xlink"><title>icon-ts-header</title><defs><rect id="b" width="165" height="165" rx="6"/><filter x="-50%" y="-50%" width="200%" height="200%" filterUnits="objectBoundingBox" id="a"><feOffset dy="1" in="SourceAlpha" result="shadowOffsetOuter1"/><feGaussianBlur stdDeviation="5.5" in="shadowOffsetOuter1" result="shadowBlurOuter1"/><feColorMatrix values="0 0 0 0 0 0 0 0 0 0 0 0 0 0 0 0 0 0 0.157552083 0" in="shadowBlurOuter1"/></filter></defs><g fill="none" fill-rule="evenodd"><g transform="translate(11 10)"><use fill="#000" filter="url(#a)" xlink:href="#b"/><use fill="#FFF" xlink:href="#b"/></g><path d="M67.588 135V73.906H89.47V62.748H33.033v11.158h21.881V135h12.674zM125 136.3c19.39 0 27.947-10.4 27.947-22.423 0-26.864-42.03-18.523-42.03-32.064 0-5.308 4.767-8.99 12.133-8.99 7.583 0 15.273 2.6 21.015 8.34l7.149-9.424c-6.608-6.5-15.815-10.182-26.973-10.182-15.923 0-26.322 9.207-26.322 21.231 0 26.54 42.03 17.115 42.03 32.28 0 4.875-4.009 9.966-14.408 9.966-10.074 0-17.981-4.766-22.856-10.074l-7.15 9.858c6.5 6.716 16.14 11.482 29.465 11.482z" fill="#006ECD"/></g></svg>